<?xml version="1.0" encoding="UTF-8"?>
<svg version="1.1" xmlns="http://www.w3.org/2000/svg" width="48" height="48">
<path d="M0 0 C0.7027002 -0.00191345 1.40540039 -0.0038269 2.12939453 -0.00579834 C3.61556354 -0.00715975 5.10174445 -0.00346632 6.58789062 0.00488281 C8.86615646 0.01558346 11.14363377 0.00498661 13.421875 -0.0078125 C14.86458508 -0.0064909 16.30729466 -0.00392849 17.75 0 C19.06742188 0.00225586 20.38484375 0.00451172 21.7421875 0.00683594 C24.875 0.265625 24.875 0.265625 26.875 2.265625 C27.13378906 5.3984375 27.13378906 5.3984375 27.140625 9.390625 C27.14349518 10.44467529 27.14349518 10.44467529 27.14642334 11.52001953 C27.14778475 13.00618854 27.14409132 14.49236945 27.13574219 15.97851562 C27.12504154 18.25678146 27.13563839 20.53425877 27.1484375 22.8125 C27.1471159 24.25521008 27.14455349 25.69791966 27.140625 27.140625 C27.13836914 28.45804688 27.13611328 29.77546875 27.13378906 31.1328125 C26.875 34.265625 26.875 34.265625 24.875 36.265625 C21.7421875 36.52441406 21.7421875 36.52441406 17.75 36.53125 C17.0472998 36.53316345 16.34459961 36.5350769 15.62060547 36.53704834 C14.13443646 36.53840975 12.64825555 36.53471632 11.16210938 36.52636719 C8.88384354 36.51566654 6.60636623 36.52626339 4.328125 36.5390625 C2.88541492 36.5377409 1.44270534 36.53517849 0 36.53125 C-1.31742188 36.52899414 -2.63484375 36.52673828 -3.9921875 36.52441406 C-7.125 36.265625 -7.125 36.265625 -9.125 34.265625 C-9.38378906 31.1328125 -9.38378906 31.1328125 -9.390625 27.140625 C-9.39253845 26.4379248 -9.3944519 25.73522461 -9.39642334 25.01123047 C-9.39778475 23.52506146 -9.39409132 22.03888055 -9.38574219 20.55273438 C-9.37504154 18.27446854 -9.38563839 15.99699123 -9.3984375 13.71875 C-9.3971159 12.27603992 -9.39455349 10.83333034 -9.390625 9.390625 C-9.38836914 8.07320312 -9.38611328 6.75578125 -9.38378906 5.3984375 C-8.87226161 -0.79394015 -5.32764374 0.00912268 0 0 Z M-4.93994141 4.45068359 C-6.56878139 6.94528525 -6.51309182 8.73539165 -6.5234375 11.703125 C-6.52730469 12.76273438 -6.53117188 13.82234375 -6.53515625 14.9140625 C-6.52355469 16.02007812 -6.51195312 17.12609375 -6.5 18.265625 C-6.51160156 19.37164063 -6.52320313 20.47765625 -6.53515625 21.6171875 C-6.53128906 22.67679688 -6.52742187 23.73640625 -6.5234375 24.828125 C-6.52005371 25.79878906 -6.51666992 26.76945312 -6.51318359 27.76953125 C-6.29966364 30.2700732 -6.29966364 30.2700732 -4.93994141 32.08056641 C-2.44533975 33.70940639 -0.65523335 33.65371682 2.3125 33.6640625 C3.37210938 33.66792969 4.43171875 33.67179687 5.5234375 33.67578125 C6.62945312 33.66417969 7.73546875 33.65257813 8.875 33.640625 C9.98101563 33.65222656 11.08703125 33.66382812 12.2265625 33.67578125 C13.28617188 33.67191406 14.34578125 33.66804688 15.4375 33.6640625 C16.40816406 33.66067871 17.37882812 33.65729492 18.37890625 33.65380859 C20.8794482 33.44028864 20.8794482 33.44028864 22.68994141 32.08056641 C24.31878139 29.58596475 24.26309182 27.79585835 24.2734375 24.828125 C24.27730469 23.76851562 24.28117187 22.70890625 24.28515625 21.6171875 C24.27355469 20.51117187 24.26195313 19.40515625 24.25 18.265625 C24.26160156 17.15960938 24.27320312 16.05359375 24.28515625 14.9140625 C24.27935547 13.32464844 24.27935547 13.32464844 24.2734375 11.703125 C24.27005371 10.73246094 24.26666992 9.76179687 24.26318359 8.76171875 C24.04966364 6.2611768 24.04966364 6.2611768 22.68994141 4.45068359 C20.19533975 2.82184361 18.40523335 2.87753318 15.4375 2.8671875 C14.37789062 2.86332031 13.31828125 2.85945312 12.2265625 2.85546875 C10.56753906 2.87287109 10.56753906 2.87287109 8.875 2.890625 C7.21597656 2.87322266 7.21597656 2.87322266 5.5234375 2.85546875 C4.46382812 2.85933594 3.40421875 2.86320313 2.3125 2.8671875 C0.85650391 2.87226318 0.85650391 2.87226318 -0.62890625 2.87744141 C-3.1294482 3.09096136 -3.1294482 3.09096136 -4.93994141 4.45068359 Z " fill="#000000" transform="translate(15.125,5.734375)"/>
</svg>
